<?xml version="1.0" encoding="iso-8859-1"?>
<!-- Generator: Adobe Illustrator 19.0.0, SVG Export Plug-In . SVG Version: 6.00 Build 0)  -->
<svg version="1.1" id="Layer_1" xmlns="http://www.w3.org/2000/svg" xmlns:xlink="http://www.w3.org/1999/xlink" x="0px" y="0px"
	 viewBox="0 0 512 512" style="enable-background:new 0 0 512 512;" xml:space="preserve">
<circle style="fill:#FFC61B;" cx="256" cy="256" r="256"/>
<path style="fill:#D3AC09;" d="M512,256c0-3.646-0.095-7.268-0.247-10.878l-88.385-84.892L101.638,368.142l144.084,143.634
	c3.412,0.134,6.835,0.222,10.28,0.222C397.384,512,512,397.384,512,256z"/>
<rect x="199.111" y="369.778" style="fill:#121244;" width="113.778" height="28.444"/>
<rect x="254.845" y="369.778" style="fill:#07072B;" width="58.037" height="28.444"/>
<rect x="181.872" y="391.327" style="fill:#273B7A;" width="148.256" height="25.859"/>
<rect x="254.845" y="391.327" style="fill:#121149;" width="75.276" height="25.859"/>
<path style="fill:#5282AA;" d="M389.675,142.222H255.426H122.325c-12.576,0-22.769,10.193-22.769,22.769v182.017
	c0,12.576,10.195,22.769,22.769,22.769h133.101h134.249c12.576,0,22.769-10.195,22.769-22.769V164.992
	C412.444,152.416,402.249,142.222,389.675,142.222z"/>
<path style="fill:#366695;" d="M389.675,142.222H255.426h-0.574v227.556h0.574h134.249c12.576,0,22.769-10.195,22.769-22.769
	V164.992C412.444,152.416,402.249,142.222,389.675,142.222z"/>
<path style="fill:#273B7A;" d="M389.675,376.673h-267.35c-16.356,0-29.665-13.309-29.665-29.665V164.992
	c0-16.356,13.309-29.665,29.665-29.665h267.35c16.356,0,29.665,13.309,29.665,29.665v182.017
	C419.34,363.365,406.031,376.673,389.675,376.673z M122.325,149.118c-8.752,0-15.874,7.121-15.874,15.874v182.017
	c0,8.752,7.121,15.874,15.874,15.874h267.35c8.752,0,15.874-7.121,15.874-15.874V164.992c0-8.752-7.121-15.874-15.874-15.874
	H122.325z"/>
<path style="fill:#121149;" d="M389.675,135.327H254.852v13.791h134.823c8.752,0,15.874,7.121,15.874,15.874v182.017
	c0,8.752-7.121,15.874-15.874,15.874H254.852v13.791h134.823c16.356,0,29.665-13.309,29.665-29.665V164.992
	C419.34,148.635,406.031,135.327,389.675,135.327z"/>
<path style="fill:#D48B07;" d="M293.548,284.444h64.722c3.363,0,6.091-2.727,6.091-6.091v-32.02H287.46v32.02
	C287.458,281.717,290.185,284.444,293.548,284.444z"/>
<g>
	<rect x="158.013" y="284.444" style="fill:#EFD68F;" width="37.926" height="28.444"/>
	<rect x="308.079" y="284.444" style="fill:#EFD68F;" width="37.926" height="56.889"/>
</g>
<path style="fill:#FFEDB5;" d="M216.955,238.776c0,23.399-17.901,54.472-39.983,54.472s-39.983-31.073-39.983-54.472
	s17.901-42.367,39.983-42.367S216.955,215.378,216.955,238.776z"/>
<path style="fill:#FFC61B;" d="M181.374,193.108c-45.363-0.734-60.769,39.983-48.419,63.826c0,0,0.89-0.772,2.289-2.122
	c1.848,4.824,4.67,9.454,8.899,10.916c0,0-3.91-9.106-2.248-18.02c6.253-7.409,13.115-18.032,10.869-27.088
	c0,0,18.515,21.964,59.987,24.161c3.339,9.726-2.489,20.949-2.489,20.949c7.39-2.555,11.5-14.774,12.598-20.813
	c0.838-0.021,1.681-0.048,2.534-0.086C225.392,244.829,226.737,193.841,181.374,193.108z"/>
<path style="fill:#FFEDB5;" d="M365.177,244.071c0,22.314-17.072,51.948-38.131,51.948c-21.059,0-38.131-29.634-38.131-51.948
	s17.072-40.405,38.131-40.405C348.105,203.666,365.177,221.756,365.177,244.071z"/>
<path style="fill:#D48B07;" d="M307.457,224.53c0,0,26.819,36.149,60.402,41.744c0,0,7.463-69.03-41.512-69.03
	c-30.084,0-48.974,38.714-33.349,69.73C292.997,266.974,292.299,242.021,307.457,224.53z"/>
<path style="fill:#71E2EF;" d="M195.936,293.064c0,10.473-8.49,18.963-18.963,18.963s-18.963-8.49-18.963-18.963l-25.672,13.419
	c-7.532,3.937-12.254,11.733-12.254,20.232v23.238h113.778v-23.237c0-8.499-4.722-16.294-12.254-20.232L195.936,293.064z"/>
<path style="fill:#FFAD9E;" d="M346.01,293.064c0,10.473-18.963,37.064-18.963,37.064s-18.963-26.591-18.963-37.064l-25.672,13.419
	c-7.532,3.937-12.254,11.733-12.254,20.232v23.238h113.778v-23.237c0-8.499-4.722-16.294-12.254-20.232L346.01,293.064z"/>
<path style="fill:#FFFFFF;" d="M188.049,142.222H124.84c-6.11,0-11.062,4.953-11.062,11.062v34.766
	c0,6.11,4.953,11.062,11.062,11.062h42.379l12.81,12.81c1.793,1.793,4.86,0.524,4.86-2.014v-10.799h3.16
	c6.11,0,11.062-4.953,11.062-11.062v-34.764C199.111,147.175,194.158,142.222,188.049,142.222z"/>
<path style="fill:#E2E2E2;" d="M188.049,142.222h-32.609v56.889h11.779l12.81,12.81c1.793,1.793,4.86,0.524,4.86-2.014v-10.797h3.16
	c6.11,0,11.062-4.953,11.062-11.062v-34.764C199.111,147.175,194.158,142.222,188.049,142.222z"/>
<path style="fill:#FFFFFF;" d="M352.396,157.017h63.21c6.11,0,11.062,4.953,11.062,11.062v34.766c0,6.11-4.953,11.062-11.062,11.062
	h-42.381l-12.81,12.81c-1.793,1.793-4.86,0.524-4.86-2.014v-10.797h-3.16c-6.11,0-11.062-4.953-11.062-11.062v-34.768
	C341.333,161.97,346.286,157.017,352.396,157.017z"/>
<path style="fill:#E2E2E2;" d="M415.604,157.017h-32.035v56.889h32.035c6.11,0,11.062-4.953,11.062-11.062v-34.764
	C426.667,161.97,421.714,157.017,415.604,157.017z"/>
<g>
</g>
<g>
</g>
<g>
</g>
<g>
</g>
<g>
</g>
<g>
</g>
<g>
</g>
<g>
</g>
<g>
</g>
<g>
</g>
<g>
</g>
<g>
</g>
<g>
</g>
<g>
</g>
<g>
</g>
</svg>
